<svg xmlns="http://www.w3.org/2000/svg" version="1.1" xmlns:xlink="http://www.w3.org/1999/xlink" width="1000" height="1000"><style>
    #light-icon {
      display: inline;
    }
    #dark-icon {
      display: none;
    }

    @media (prefers-color-scheme: dark) {
      #light-icon {
        display: none;
      }
      #dark-icon {
        display: inline;
      }
    }
  </style><g id="light-icon"><svg xmlns="http://www.w3.org/2000/svg" version="1.1" xmlns:xlink="http://www.w3.org/1999/xlink" width="1000" height="1000"><g clip-path="url(#SvgjsClipPath1177)"><rect width="1000" height="1000" fill="#ffffff"></rect><g transform="matrix(0.7909604519774012,0,0,0.7909604519774012,159.49152542372877,150)"><svg xmlns="http://www.w3.org/2000/svg" version="1.1" xmlns:xlink="http://www.w3.org/1999/xlink" width="861.653614pt" height="885.862098pt"><svg version="1.0" xmlns="http://www.w3.org/2000/svg" width="861.653614pt" height="885.862098pt" viewBox="0 0 861.653614 885.862098" preserveAspectRatio="xMidYMid meet">
<metadata>
Created by potrace 1.12, written by Peter Selinger 2001-2015
</metadata>
<g transform="translate(-76.346386,955.825875) scale(0.100000,-0.100000)" fill="#000000" stroke="none">
<path d="M4420 9549 c-136 -13 -305 -42 -304 -54 0 -5 19 -23 41 -40 47 -34
52 -45 22 -45 -55 0 -299 -83 -402 -138 l-52 -27 150 -5 150 -5 -75 -14 c-182
-33 -521 -168 -714 -284 -53 -32 -56 -36 -38 -46 19 -10 158 -36 227 -43 29
-3 28 -5 -50 -68 -108 -87 -207 -183 -266 -256 -27 -34 -49 -65 -49 -68 0 -9
148 -6 200 4 25 4 46 7 48 5 1 -1 -14 -40 -34 -86 -64 -145 -89 -234 -119
-412 l-6 -38 40 26 41 25 0 -53 c0 -44 43 -456 66 -628 l6 -45 -41 -19 c-121
-54 -149 -167 -113 -460 12 -94 26 -228 32 -300 17 -207 51 -306 131 -386 57
-57 118 -82 203 -83 l69 -1 24 -130 c13 -72 38 -185 57 -252 l33 -121 -91 -33
c-336 -119 -571 -255 -743 -431 -86 -87 -122 -133 -196 -254 -56 -91 -120
-160 -173 -187 -16 -8 -60 -24 -98 -36 -38 -12 -86 -31 -106 -41 -123 -63
-186 -246 -125 -365 13 -27 23 -50 22 -51 -1 -1 -75 -38 -165 -82 -336 -168
-495 -278 -588 -408 -136 -190 -268 -602 -393 -1229 -91 -453 -226 -1272 -274
-1658 l-4 -27 92 0 91 0 18 148 c46 386 265 1574 357 1937 64 251 203 654 215
620 2 -5 42 -174 89 -375 209 -891 355 -1735 381 -2207 l7 -123 84 0 c74 0 83
2 83 18 0 41 -31 346 -50 492 -23 172 -98 620 -130 774 -11 54 -20 106 -20
115 0 14 26 19 183 35 100 9 308 31 461 47 153 16 280 28 281 27 6 -9 228
-253 335 -368 432 -465 722 -797 910 -1042 l75 -98 98 0 98 0 -31 45 c-98 143
-404 511 -658 794 -212 235 -710 770 -841 903 l-135 138 25 27 c36 39 337 380
378 427 l34 40 -34 29 c-19 16 -87 65 -152 108 -64 44 -117 82 -117 85 0 3 46
72 103 153 271 385 277 394 397 657 50 110 112 237 137 284 50 93 155 251 180
272 15 12 16 10 10 -14 -37 -149 -77 -515 -77 -709 0 -197 47 -400 168 -730
144 -389 242 -655 427 -1149 210 -564 267 -725 380 -1065 37 -110 76 -220 88
-245 l22 -45 231 -3 231 -2 7 112 c27 444 68 937 107 1283 16 151 24 189 47
235 15 30 32 56 37 57 6 2 0 -101 -17 -269 -51 -512 -108 -1243 -108 -1385 l0
-33 63 0 63 0 12 217 c17 284 45 630 83 1028 17 176 36 374 43 439 l11 119 85
29 c194 65 350 94 735 133 138 14 277 30 310 36 139 23 199 60 237 145 22 51
20 60 -62 404 -74 309 -144 629 -139 633 22 17 319 131 325 124 11 -13 58
-168 73 -245 17 -82 61 -399 61 -438 0 -7 -13 -15 -29 -19 -53 -11 -54 -18
-46 -220 l7 -185 30 -25 c27 -23 38 -25 126 -25 81 0 103 4 131 21 l34 21 -6
188 c-4 104 -10 196 -13 205 -4 9 -19 19 -35 22 -26 5 -29 10 -29 42 0 155
-73 558 -125 692 -4 12 3 20 26 30 18 7 52 28 76 46 l44 34 140 -61 c208 -90
448 -207 615 -300 149 -82 360 -217 382 -242 8 -10 4 -40 -19 -123 -90 -332
-217 -872 -314 -1330 -153 -725 -202 -980 -235 -1225 -11 -84 -20 -156 -20
-161 0 -5 38 -9 85 -9 l85 0 0 38 c0 81 51 415 111 722 103 528 433 1940 450
1923 18 -18 111 -268 154 -418 79 -273 143 -572 214 -1000 39 -231 201 -1249
201 -1260 0 -3 41 -5 90 -5 53 0 90 4 90 10 0 23 -154 1035 -191 1255 -100
595 -237 1142 -355 1416 -48 113 -111 206 -147 219 -34 11 -74 52 -87 86 -30
78 -625 409 -1077 599 l-93 39 0 41 c0 55 -24 144 -56 207 -14 28 -39 96 -54
152 -55 194 -119 305 -251 432 -41 38 -106 91 -145 117 -110 72 -303 161 -469
216 -82 28 -149 54 -148 58 1 4 17 80 37 168 19 88 40 190 46 227 l12 66 66
-1 c153 -1 268 104 316 289 19 75 52 343 66 545 10 134 9 165 -5 227 -20 87
-57 141 -115 167 l-42 19 7 60 c3 34 18 120 31 191 45 236 64 378 71 523 3 78
8 142 11 142 2 0 16 -8 30 -18 51 -35 51 -35 45 5 -30 209 -154 471 -272 577
-23 21 -24 25 -12 44 6 10 22 8 75 -14 37 -14 69 -24 72 -21 11 10 -16 44 -88
113 -121 115 -246 168 -425 180 l-89 7 -34 61 c-45 82 -159 195 -235 233 -175
89 -578 189 -855 213 -135 12 -464 11 -600 -1z m957 -1005 c211 -31 627 -153
683 -201 34 -29 101 -132 136 -210 53 -121 66 -199 70 -447 3 -192 8 -252 29
-360 108 -568 -16 -1318 -276 -1663 -51 -68 -154 -178 -191 -204 -27 -19 -28
-20 -34 -2 -27 80 -72 158 -113 196 -82 77 -251 139 -436 159 -96 11 -102 10
-145 -12 -71 -36 -151 -38 -234 -5 -63 25 -76 27 -150 21 -115 -10 -227 -40
-332 -91 -110 -53 -156 -101 -205 -210 -19 -41 -37 -75 -41 -75 -4 0 -32 25
-62 55 -234 233 -377 611 -426 1128 -18 181 -8 553 19 721 16 98 21 175 21
318 0 210 12 291 62 421 64 165 198 318 348 396 44 23 80 39 80 36 0 -3 -11
-28 -25 -55 -47 -92 -104 -340 -78 -340 4 0 19 16 32 36 42 61 185 187 267
235 66 39 198 99 218 99 3 0 -3 -15 -14 -32 -23 -41 -66 -168 -75 -226 l-7
-44 83 87 c138 143 300 255 404 278 50 11 294 6 392 -9z m-1988 -1470 c53 -38
85 -162 106 -416 9 -102 26 -253 39 -337 25 -169 25 -169 -39 -157 -50 10 -88
47 -119 115 -23 51 -28 84 -41 248 -9 103 -22 231 -31 283 -20 127 -20 224 1
256 18 28 50 31 84 8z m3285 1 c29 -30 30 -103 3 -380 -15 -148 -34 -301 -42
-340 -28 -130 -100 -206 -180 -191 -42 8 -42 5 -15 168 11 68 26 198 35 290 8
91 20 190 26 220 13 63 83 218 106 236 23 16 48 15 67 -3z m-1419 -1491 c158
-30 251 -70 307 -133 63 -69 78 -192 34 -279 -31 -61 -142 -191 -209 -243
-110 -88 -176 -98 -290 -47 -95 43 -155 43 -254 -1 -87 -38 -131 -39 -202 -6
-58 27 -206 164 -267 247 -68 91 -68 222 0 311 45 59 149 109 301 142 114 26
124 27 215 15 81 -11 106 -10 160 2 68 16 77 15 205 -8z m1106 -263 c453 -155
635 -306 647 -537 7 -126 -37 -246 -138 -384 -91 -122 -305 -315 -519 -465
-95 -67 -118 -103 -99 -158 11 -29 53 -57 88 -57 24 0 87 31 148 72 24 17 45
28 47 26 1 -1 24 -100 50 -218 25 -118 71 -310 101 -426 30 -116 54 -230 54
-253 0 -38 -3 -43 -33 -56 -33 -14 -157 -30 -490 -65 -281 -29 -505 -71 -622
-115 -35 -14 76 93 170 164 183 137 542 352 655 391 65 22 75 29 78 52 5 39
-38 68 -102 68 -62 0 -113 -23 -321 -145 -249 -146 -502 -327 -579 -413 -23
-26 -40 -29 -26 -4 5 9 30 60 54 114 86 189 205 379 428 685 235 321 303 507
317 868 l6 170 27 -86 c32 -98 64 -232 74 -304 7 -57 27 -85 60 -85 35 0 178
113 250 198 111 130 158 256 123 325 -14 26 -60 77 -70 77 -4 0 -17 -29 -29
-65 -25 -74 -81 -163 -151 -238 -34 -38 -49 -48 -53 -37 -2 8 -17 65 -31 125
-47 192 -109 340 -192 459 -19 26 -37 63 -40 82 -6 39 16 264 26 264 4 0 45
-13 92 -29z m-2603 -73 c6 -35 14 -92 17 -128 l6 -65 -35 -24 c-56 -37 -188
-180 -246 -266 -66 -98 -142 -256 -218 -455 -33 -85 -69 -177 -81 -204 l-22
-50 -65 65 c-36 35 -95 99 -131 142 -37 42 -69 77 -73 77 -4 0 -13 -26 -19
-57 -11 -50 -10 -65 4 -108 28 -81 62 -131 142 -204 l75 -70 -22 -35 c-12 -20
-24 -36 -27 -36 -3 0 -37 30 -76 66 -180 166 -352 261 -567 310 -78 19 -90 27
-90 66 0 48 43 82 146 113 168 51 242 114 378 318 147 221 282 340 526 462
107 54 326 144 351 145 13 0 19 -15 27 -62z m2328 -492 c8 -127 19 -259 23
-294 7 -56 4 -75 -19 -142 -53 -153 -204 -325 -401 -456 -169 -112 -324 -171
-534 -201 -411 -58 -867 108 -1166 424 -35 38 -77 90 -92 116 l-28 47 15 83
c27 146 45 321 52 513 l7 187 21 -29 c12 -16 57 -71 101 -124 234 -279 397
-409 590 -470 59 -19 100 -23 256 -28 212 -5 326 7 431 45 202 72 411 260 636
568 l87 121 2 -66 c2 -36 10 -168 19 -294z m1141 -369 c9 -92 -49 -147 -189
-181 -38 -9 -73 -15 -75 -12 -3 3 12 27 34 53 61 74 101 136 141 220 l36 77
24 -52 c13 -29 26 -76 29 -105z m-4735 -409 c54 -17 67 -25 62 -38 -4 -8 -31
-85 -60 -171 -61 -177 -109 -397 -126 -576 -12 -117 -13 -123 -35 -123 -40 0
-50 -35 -63 -207 -15 -221 -11 -227 151 -237 156 -10 149 -21 152 229 2 199 2
200 -20 210 -28 12 -28 8 -3 175 31 214 103 478 159 588 l16 32 80 -64 c44
-35 95 -79 113 -98 l32 -34 -99 -139 c-55 -77 -110 -159 -122 -183 -19 -40
-20 -48 -8 -84 14 -43 49 -76 167 -153 39 -26 72 -51 72 -55 0 -4 -37 -47 -82
-96 -121 -133 -241 -274 -271 -319 -45 -66 -39 -84 65 -191 50 -52 89 -96 87
-98 -4 -3 -716 -75 -784 -79 l-29 -2 -33 155 c-103 489 -239 1067 -268 1141
-10 27 133 121 380 250 138 72 382 189 394 189 3 0 35 -10 73 -22z m4782 -865
c11 -131 10 -133 -23 -133 l-30 0 -3 101 c-2 55 -1 103 1 105 2 2 14 4 26 4
20 0 23 -6 29 -77z m-4819 -190 c-2 -16 -7 -58 -10 -95 -6 -58 -9 -68 -26 -68
-21 0 -23 13 -12 123 5 62 8 67 29 67 20 0 23 -4 19 -27z"></path>
<path d="M4015 7291 c-108 -29 -206 -130 -229 -237 -5 -23 -2 -36 10 -48 9 -9
19 -16 23 -14 3 2 46 23 95 48 l89 45 146 3 c111 3 180 -2 286 -18 248 -37
249 -37 284 -2 51 51 39 98 -37 136 -116 58 -265 87 -477 92 -88 2 -173 0
-190 -5z"></path>
<path d="M5600 7289 c-194 -22 -330 -65 -371 -117 -28 -36 -25 -86 7 -111 33
-26 58 -26 208 1 97 17 160 22 317 22 l197 1 96 -49 c79 -40 99 -46 111 -36
22 18 18 48 -14 115 -36 78 -114 149 -184 170 -56 17 -238 19 -367 4z"></path>
<path d="M4207 7014 c-74 -18 -109 -36 -164 -87 -52 -48 -69 -82 -52 -103 18
-22 30 -18 120 42 l84 55 6 -50 c8 -60 36 -103 83 -125 42 -20 59 -20 100 -1
42 20 70 68 76 133 l5 53 64 -55 c132 -114 166 -37 37 82 -28 26 -64 46 -97
56 -64 19 -183 19 -262 0z"></path>
<path d="M5490 7015 c-56 -18 -114 -66 -151 -124 -22 -33 -26 -48 -18 -58 21
-24 48 -14 110 42 34 30 65 55 68 55 4 0 5 -15 3 -34 -9 -75 61 -166 128 -166
65 0 130 74 130 148 l0 44 48 -28 c26 -15 65 -40 86 -56 43 -31 74 -36 82 -13
18 47 -70 136 -173 175 -76 29 -246 37 -313 15z"></path>
<path d="M5113 6854 c-16 -25 -18 -50 -18 -219 0 -131 4 -201 13 -227 28 -79
91 -124 78 -55 -3 18 -13 140 -20 271 -8 131 -19 243 -24 248 -7 7 -17 0 -29
-18z"></path>
<path d="M4634 6155 c-37 -39 -49 -84 -41 -151 8 -76 72 -124 163 -124 17 0
43 -9 57 -20 77 -61 155 -65 250 -15 49 26 78 35 114 35 121 0 190 96 148 206
-17 45 -55 81 -74 70 -7 -5 -7 -16 0 -34 6 -15 11 -45 11 -66 1 -58 -26 -76
-113 -76 -59 0 -75 -4 -116 -30 -59 -38 -79 -38 -156 2 -35 18 -87 35 -120 39
-79 10 -91 21 -83 84 3 27 8 65 12 83 8 43 -9 42 -52 -3z"></path>
<path d="M4785 5480 c-243 -6 -287 -13 -300 -48 -10 -27 14 -39 88 -46 295
-25 385 -27 573 -11 290 25 298 26 302 52 2 15 -6 27 -24 40 -24 16 -52 18
-214 19 -102 1 -293 -2 -425 -6z"></path>
<path d="M5159 5236 c-2 -3 -99 -5 -214 -7 -231 -2 -255 -8 -255 -57 0 -65 83
-142 174 -163 30 -6 93 -10 142 -7 148 7 224 61 226 160 0 32 -5 46 -22 60
-21 17 -42 23 -51 14z"></path>
<path d="M6425 3127 c-45 -45 -62 -109 -41 -153 21 -44 57 -66 108 -66 51 1
86 25 112 76 24 50 15 99 -29 143 -27 27 -41 33 -75 33 -34 0 -48 -6 -75 -33z"></path>
<path d="M3190 3512 c-75 -37 -102 -127 -57 -193 34 -50 65 -57 123 -28 67 33
97 80 91 139 -4 33 -13 51 -36 72 -36 32 -71 35 -121 10z"></path>
<path d="M2936 2634 l-28 -45 164 -167 c438 -447 997 -1067 1222 -1356 89
-115 245 -331 253 -352 4 -10 24 -14 74 -14 38 0 69 3 69 6 0 8 -116 174 -215
309 -160 216 -400 498 -760 890 -237 259 -679 720 -720 751 l-30 22 -29 -44z"></path>
<path d="M6088 2542 l-317 -2 -22 -31 c-20 -29 -21 -37 -14 -157 6 -119 9
-129 33 -155 l27 -29 405 7 c364 6 1052 -3 1557 -21 l182 -7 30 31 31 30 0
124 c0 113 -2 125 -23 151 l-23 29 -194 9 c-107 4 -397 11 -645 14 -247 3
-508 6 -580 8 -71 1 -273 1 -447 -1z m-110 -187 l2 -45 -50 0 c-27 0 -53 -1
-57 -2 -5 -2 -9 18 -11 45 l-3 47 58 0 58 0 3 -45z m1700 29 l182 -7 0 -40 0
-40 -237 6 c-131 4 -527 10 -880 14 l-643 6 0 40 0 40 698 -6 c383 -4 779 -10
880 -13z"></path>
</g>
</svg></svg></g></g><defs><clipPath id="SvgjsClipPath1177"><rect width="1000" height="1000" x="0" y="0" rx="500" ry="500"></rect></clipPath></defs></svg></g><g id="dark-icon"><svg xmlns="http://www.w3.org/2000/svg" version="1.1" xmlns:xlink="http://www.w3.org/1999/xlink" width="1000" height="1000"><g clip-path="url(#SvgjsClipPath1178)"><rect width="1000" height="1000" fill="#ffffff"></rect><g transform="matrix(7,0,0,7,150,150)"><svg xmlns="http://www.w3.org/2000/svg" version="1.1" xmlns:xlink="http://www.w3.org/1999/xlink" width="100%" height="100%"><svg width="100%" height="100%" viewBox="0 0 862 886" version="1.1" xmlns="http://www.w3.org/2000/svg" xmlns:xlink="http://www.w3.org/1999/xlink" xml:space="preserve" xmlns:serif="http://www.serif.com/" style="fill-rule:evenodd;clip-rule:evenodd;stroke-linejoin:round;stroke-miterlimit:2;">
    <g transform="matrix(0.1,0,0,-0.1,-76.3464,955.826)">
        <path d="M4420,9549C4284,9536 4115,9507 4116,9495C4116,9490 4135,9472 4157,9455C4204,9421 4209,9410 4179,9410C4124,9410 3880,9327 3777,9272L3725,9245L4025,9235L3950,9221C3768,9188 3429,9053 3236,8937C3183,8905 3180,8901 3198,8891C3217,8881 3356,8855 3425,8848C3454,8845 3453,8843 3375,8780C3267,8693 3168,8597 3109,8524C3082,8490 3060,8459 3060,8456C3060,8447 3208,8450 3260,8460C3285,8464 3306,8467 3308,8465C3309,8464 3294,8425 3274,8379C3210,8234 3185,8145 3155,7967L3149,7929L3189,7955L3230,7980L3230,7927C3230,7883 3273,7471 3296,7299L3302,7254L3261,7235C3140,7181 3112,7068 3148,6775C3160,6681 3174,6547 3180,6475C3197,6268 3231,6169 3311,6089C3368,6032 3429,6007 3514,6006L3583,6005L3607,5875C3620,5803 3645,5690 3664,5623L3697,5502L3606,5469C3270,5350 3035,5214 2863,5038C2777,4951 2741,4905 2667,4784C2611,4693 2547,4624 2494,4597C2478,4589 2434,4573 2396,4561C2358,4549 2310,4530 2290,4520C2167,4457 2104,4274 2165,4155C2178,4128 2188,4105 2187,4104C2186,4103 2112,4066 2022,4022C1686,3854 1527,3744 1434,3614C1298,3424 1166,3012 1041,2385C950,1932 815,1113 767,727L763,700L946,700L964,848C1010,1234 1229,2422 1321,2785C1385,3036 1524,3439 1536,3405C1538,3400 1578,3231 1625,3030C1834,2139 1980,1295 2006,823L2013,700L2097,700C2171,700 2180,702 2180,718C2180,759 2149,1064 2130,1210C2107,1382 2032,1830 2000,1984C1989,2038 1980,2090 1980,2099C1980,2113 2006,2118 2163,2134C2263,2143 2471,2165 2624,2181C2777,2197 2904,2209 2905,2208C2911,2199 3133,1955 3240,1840C3672,1375 3962,1043 4150,798L4225,700L4421,700L4390,745C4292,888 3986,1256 3732,1539C3520,1774 3022,2309 2891,2442L2756,2580L2781,2607C2817,2646 3118,2987 3159,3034L3193,3074L3159,3103C3140,3119 3072,3168 3007,3211C2943,3255 2890,3293 2890,3296C2890,3299 2936,3368 2993,3449C3264,3834 3270,3843 3390,4106C3440,4216 3502,4343 3527,4390C3577,4483 3682,4641 3707,4662C3722,4674 3723,4672 3717,4648C3680,4499 3640,4133 3640,3939C3640,3742 3687,3539 3808,3209C3952,2820 4050,2554 4235,2060C4445,1496 4502,1335 4615,995C4652,885 4691,775 4703,750L4725,705L4956,702L5187,700L5194,812C5221,1256 5262,1749 5301,2095C5317,2246 5325,2284 5348,2330C5363,2360 5380,2386 5385,2387C5391,2389 5385,2286 5368,2118C5317,1606 5260,875 5260,733L5260,700L5386,700L5398,917C5415,1201 5443,1547 5481,1945C5498,2121 5517,2319 5524,2384L5535,2503L5620,2532C5814,2597 5970,2626 6355,2665C6493,2679 6632,2695 6665,2701C6804,2724 6864,2761 6902,2846C6924,2897 6922,2906 6840,3250C6766,3559 6696,3879 6701,3883C6723,3900 7020,4014 7026,4007C7037,3994 7084,3839 7099,3762C7116,3680 7160,3363 7160,3324C7160,3317 7147,3309 7131,3305C7078,3294 7077,3287 7085,3085L7092,2900L7122,2875C7149,2852 7160,2850 7248,2850C7329,2850 7351,2854 7379,2871L7413,2892L7407,3080C7403,3184 7397,3276 7394,3285C7390,3294 7375,3304 7359,3307C7333,3312 7330,3317 7330,3349C7330,3504 7257,3907 7205,4041C7201,4053 7208,4061 7231,4071C7249,4078 7283,4099 7307,4117L7351,4151L7491,4090C7699,4000 7939,3883 8106,3790C8255,3708 8466,3573 8488,3548C8496,3538 8492,3508 8469,3425C8379,3093 8252,2553 8155,2095C8002,1370 7953,1115 7920,870C7909,786 7900,714 7900,709C7900,704 7938,700 7985,700L8070,700L8070,738C8070,819 8121,1153 8181,1460C8284,1988 8614,3400 8631,3383C8649,3365 8742,3115 8785,2965C8864,2692 8928,2393 8999,1965C9038,1734 9200,716 9200,705C9200,702 9241,700 9290,700C9343,700 9380,704 9380,710C9380,733 9226,1745 9189,1965C9089,2560 8952,3107 8834,3381C8786,3494 8723,3587 8687,3600C8653,3611 8613,3652 8600,3686C8570,3764 7975,4095 7523,4285L7430,4324L7430,4365C7430,4420 7406,4509 7374,4572C7360,4600 7335,4668 7320,4724C7265,4918 7201,5029 7069,5156C7028,5194 6963,5247 6924,5273C6814,5345 6621,5434 6455,5489C6373,5517 6306,5543 6307,5547C6308,5551 6324,5627 6344,5715C6363,5803 6384,5905 6390,5942L6402,6008L6468,6007C6621,6006 6736,6111 6784,6296C6803,6371 6836,6639 6850,6841C6860,6975 6859,7006 6845,7068C6825,7155 6788,7209 6730,7235L6688,7254L6695,7314C6698,7348 6713,7434 6726,7505C6771,7741 6790,7883 6797,8028C6800,8106 6805,8170 6808,8170C6810,8170 6824,8162 6838,8152C6889,8117 6889,8117 6883,8157C6853,8366 6729,8628 6611,8734C6588,8755 6587,8759 6599,8778C6605,8788 6621,8786 6674,8764C6711,8750 6743,8740 6746,8743C6757,8753 6730,8787 6658,8856C6537,8971 6412,9024 6233,9036L6144,9043L6110,9104C6065,9186 5951,9299 5875,9337C5700,9426 5297,9526 5020,9550C4885,9562 4556,9561 4420,9549ZM5377,8544C5588,8513 6004,8391 6060,8343C6094,8314 6161,8211 6196,8133C6249,8012 6262,7934 6266,7686C6269,7494 6274,7434 6295,7326C6403,6758 6279,6008 6019,5663C5968,5595 5865,5485 5828,5459C5801,5440 5800,5439 5794,5457C5767,5537 5722,5615 5681,5653C5599,5730 5430,5792 5245,5812C5149,5823 5143,5822 5100,5800C5029,5764 4949,5762 4866,5795C4803,5820 4790,5822 4716,5816C4601,5806 4489,5776 4384,5725C4274,5672 4228,5624 4179,5515C4160,5474 4142,5440 4138,5440C4134,5440 4106,5465 4076,5495C3842,5728 3699,6106 3650,6623C3632,6804 3642,7176 3669,7344C3685,7442 3690,7519 3690,7662C3690,7872 3702,7953 3752,8083C3816,8248 3950,8401 4100,8479C4144,8502 4180,8518 4180,8515C4180,8512 4169,8487 4155,8460C4108,8368 4051,8120 4077,8120C4081,8120 4096,8136 4109,8156C4151,8217 4294,8343 4376,8391C4442,8430 4574,8490 4594,8490C4597,8490 4591,8475 4580,8458C4557,8417 4514,8290 4505,8232L4498,8188L4581,8275C4719,8418 4881,8530 4985,8553C5035,8564 5279,8559 5377,8544ZM3389,7074C3442,7036 3474,6912 3495,6658C3504,6556 3521,6405 3534,6321C3559,6152 3559,6152 3495,6164C3445,6174 3407,6211 3376,6279C3353,6330 3348,6363 3335,6527C3326,6630 3313,6758 3304,6810C3284,6937 3284,7034 3305,7066C3323,7094 3355,7097 3389,7074ZM6674,7075C6703,7045 6704,6972 6677,6695C6662,6547 6643,6394 6635,6355C6607,6225 6535,6149 6455,6164C6413,6172 6413,6169 6440,6332C6451,6400 6466,6530 6475,6622C6483,6713 6495,6812 6501,6842C6514,6905 6584,7060 6607,7078C6630,7094 6655,7093 6674,7075ZM5255,5584C5413,5554 5506,5514 5562,5451C5625,5382 5640,5259 5596,5172C5565,5111 5454,4981 5387,4929C5277,4841 5211,4831 5097,4882C5002,4925 4942,4925 4843,4881C4756,4843 4712,4842 4641,4875C4583,4902 4435,5039 4374,5122C4306,5213 4306,5344 4374,5433C4419,5492 4523,5542 4675,5575C4789,5601 4799,5602 4890,5590C4971,5579 4996,5580 5050,5592C5118,5608 5127,5607 5255,5584ZM6361,5321C6814,5166 6996,5015 7008,4784C7015,4658 6971,4538 6870,4400C6779,4278 6565,4085 6351,3935C6256,3868 6233,3832 6252,3777C6263,3748 6305,3720 6340,3720C6364,3720 6427,3751 6488,3792C6512,3809 6533,3820 6535,3818C6536,3817 6559,3718 6585,3600C6610,3482 6656,3290 6686,3174C6716,3058 6740,2944 6740,2921C6740,2883 6737,2878 6707,2865C6674,2851 6550,2835 6217,2800C5936,2771 5712,2729 5595,2685C5560,2671 5671,2778 5765,2849C5948,2986 6307,3201 6420,3240C6485,3262 6495,3269 6498,3292C6503,3331 6460,3360 6396,3360C6334,3360 6283,3337 6075,3215C5826,3069 5573,2888 5496,2802C5473,2776 5456,2773 5470,2798C5475,2807 5500,2858 5524,2912C5610,3101 5729,3291 5952,3597C6187,3918 6255,4104 6269,4465L6275,4635L6302,4549C6334,4451 6366,4317 6376,4245C6383,4188 6403,4160 6436,4160C6471,4160 6614,4273 6686,4358C6797,4488 6844,4614 6809,4683C6795,4709 6749,4760 6739,4760C6735,4760 6722,4731 6710,4695C6685,4621 6629,4532 6559,4457C6525,4419 6510,4409 6506,4420C6504,4428 6489,4485 6475,4545C6428,4737 6366,4885 6283,5004C6264,5030 6246,5067 6243,5086C6237,5125 6259,5350 6269,5350C6273,5350 6314,5337 6361,5321ZM3758,5248C3764,5213 3772,5156 3775,5120L3781,5055L3746,5031C3690,4994 3558,4851 3500,4765C3434,4667 3358,4509 3282,4310C3249,4225 3213,4133 3201,4106L3179,4056L3114,4121C3078,4156 3019,4220 2983,4263C2946,4305 2914,4340 2910,4340C2906,4340 2897,4314 2891,4283C2880,4233 2881,4218 2895,4175C2923,4094 2957,4044 3037,3971L3112,3901L3090,3866C3078,3846 3066,3830 3063,3830C3060,3830 3026,3860 2987,3896C2807,4062 2635,4157 2420,4206C2342,4225 2330,4233 2330,4272C2330,4320 2373,4354 2476,4385C2644,4436 2718,4499 2854,4703C3001,4924 3136,5043 3380,5165C3487,5219 3706,5309 3731,5310C3744,5310 3750,5295 3758,5248ZM6086,4756C6094,4629 6105,4497 6109,4462C6116,4406 6113,4387 6090,4320C6037,4167 5886,3995 5689,3864C5520,3752 5365,3693 5155,3663C4744,3605 4288,3771 3989,4087C3954,4125 3912,4177 3897,4203L3869,4250L3884,4333C3911,4479 3929,4654 3936,4846L3943,5033L3964,5004C3976,4988 4021,4933 4065,4880C4299,4601 4462,4471 4655,4410C4714,4391 4755,4387 4911,4382C5123,4377 5237,4389 5342,4427C5544,4499 5753,4687 5978,4995L6065,5116L6067,5050C6069,5014 6077,4882 6086,4756ZM7227,4387C7236,4295 7178,4240 7038,4206C7000,4197 6965,4191 6963,4194C6960,4197 6975,4221 6997,4247C7058,4321 7098,4383 7138,4467L7174,4544L7198,4492C7211,4463 7224,4416 7227,4387ZM2492,3978C2546,3961 2559,3953 2554,3940C2550,3932 2523,3855 2494,3769C2433,3592 2385,3372 2368,3193C2356,3076 2355,3070 2333,3070C2293,3070 2283,3035 2270,2863C2255,2642 2259,2636 2421,2626C2577,2616 2570,2605 2573,2855C2575,3054 2575,3055 2553,3065C2525,3077 2525,3073 2550,3240C2581,3454 2653,3718 2709,3828L2725,3860L2805,3796C2849,3761 2900,3717 2918,3698L2950,3664L2851,3525C2796,3448 2741,3366 2729,3342C2710,3302 2709,3294 2721,3258C2735,3215 2770,3182 2888,3105C2927,3079 2960,3054 2960,3050C2960,3046 2923,3003 2878,2954C2757,2821 2637,2680 2607,2635C2562,2569 2568,2551 2672,2444C2722,2392 2761,2348 2759,2346C2755,2343 2043,2271 1975,2267L1946,2265L1913,2420C1810,2909 1674,3487 1645,3561C1635,3588 1778,3682 2025,3811C2163,3883 2407,4000 2419,4000C2422,4000 2454,3990 2492,3978ZM7274,3113C7285,2982 7284,2980 7251,2980L7221,2980L7218,3081C7216,3136 7217,3184 7219,3186C7221,3188 7233,3190 7245,3190C7265,3190 7268,3184 7274,3113ZM2455,2923C2453,2907 2448,2865 2445,2828C2439,2770 2436,2760 2419,2760C2398,2760 2396,2773 2407,2883C2412,2945 2415,2950 2436,2950C2456,2950 2459,2946 2455,2923Z" style="fill:white;fill-rule:nonzero;"></path>
        <path d="M4015,7291C3907,7262 3809,7161 3786,7054C3781,7031 3784,7018 3796,7006C3805,6997 3815,6990 3819,6992C3822,6994 3865,7015 3914,7040L4003,7085L4149,7088C4260,7091 4329,7086 4435,7070C4683,7033 4684,7033 4719,7068C4770,7119 4758,7166 4682,7204C4566,7262 4417,7291 4205,7296C4117,7298 4032,7296 4015,7291Z" style="fill:white;fill-rule:nonzero;"></path>
        <path d="M5600,7289C5406,7267 5270,7224 5229,7172C5201,7136 5204,7086 5236,7061C5269,7035 5294,7035 5444,7062C5541,7079 5604,7084 5761,7084L5958,7085L6054,7036C6133,6996 6153,6990 6165,7000C6187,7018 6183,7048 6151,7115C6115,7193 6037,7264 5967,7285C5911,7302 5729,7304 5600,7289Z" style="fill:white;fill-rule:nonzero;"></path>
        <path d="M4207,7014C4133,6996 4098,6978 4043,6927C3991,6879 3974,6845 3991,6824C4009,6802 4021,6806 4111,6866L4195,6921L4201,6871C4209,6811 4237,6768 4284,6746C4326,6726 4343,6726 4384,6745C4426,6765 4454,6813 4460,6878L4465,6931L4529,6876C4661,6762 4695,6839 4566,6958C4538,6984 4502,7004 4469,7014C4405,7033 4286,7033 4207,7014Z" style="fill:white;fill-rule:nonzero;"></path>
        <path d="M5490,7015C5434,6997 5376,6949 5339,6891C5317,6858 5313,6843 5321,6833C5342,6809 5369,6819 5431,6875C5465,6905 5496,6930 5499,6930C5503,6930 5504,6915 5502,6896C5493,6821 5563,6730 5630,6730C5695,6730 5760,6804 5760,6878L5760,6922L5808,6894C5834,6879 5873,6854 5894,6838C5937,6807 5968,6802 5976,6825C5994,6872 5906,6961 5803,7000C5727,7029 5557,7037 5490,7015Z" style="fill:white;fill-rule:nonzero;"></path>
        <path d="M5113,6854C5097,6829 5095,6804 5095,6635C5095,6504 5099,6434 5108,6408C5136,6329 5199,6284 5186,6353C5183,6371 5173,6493 5166,6624C5158,6755 5147,6867 5142,6872C5135,6879 5125,6872 5113,6854Z" style="fill:white;fill-rule:nonzero;"></path>
        <path d="M4634,6155C4597,6116 4585,6071 4593,6004C4601,5928 4665,5880 4756,5880C4773,5880 4799,5871 4813,5860C4890,5799 4968,5795 5063,5845C5112,5871 5141,5880 5177,5880C5298,5880 5367,5976 5325,6086C5308,6131 5270,6167 5251,6156C5244,6151 5244,6140 5251,6122C5257,6107 5262,6077 5262,6056C5263,5998 5236,5980 5149,5980C5090,5980 5074,5976 5033,5950C4974,5912 4954,5912 4877,5952C4842,5970 4790,5987 4757,5991C4678,6001 4666,6012 4674,6075C4677,6102 4682,6140 4686,6158C4694,6201 4677,6200 4634,6155Z" style="fill:white;fill-rule:nonzero;"></path>
        <path d="M4785,5480C4542,5474 4498,5467 4485,5432C4475,5405 4499,5393 4573,5386C4868,5361 4958,5359 5146,5375C5436,5400 5444,5401 5448,5427C5450,5442 5442,5454 5424,5467C5400,5483 5372,5485 5210,5486C5108,5487 4917,5484 4785,5480Z" style="fill:white;fill-rule:nonzero;"></path>
        <path d="M5159,5236C5157,5233 5060,5231 4945,5229C4714,5227 4690,5221 4690,5172C4690,5107 4773,5030 4864,5009C4894,5003 4957,4999 5006,5002C5154,5009 5230,5063 5232,5162C5232,5194 5227,5208 5210,5222C5189,5239 5168,5245 5159,5236Z" style="fill:white;fill-rule:nonzero;"></path>
        <path d="M6425,3127C6380,3082 6363,3018 6384,2974C6405,2930 6441,2908 6492,2908C6543,2909 6578,2933 6604,2984C6628,3034 6619,3083 6575,3127C6548,3154 6534,3160 6500,3160C6466,3160 6452,3154 6425,3127Z" style="fill:white;fill-rule:nonzero;"></path>
        <path d="M3190,3512C3115,3475 3088,3385 3133,3319C3167,3269 3198,3262 3256,3291C3323,3324 3353,3371 3347,3430C3343,3463 3334,3481 3311,3502C3275,3534 3240,3537 3190,3512Z" style="fill:white;fill-rule:nonzero;"></path>
        <path d="M2936,2634L2908,2589L3072,2422C3510,1975 4069,1355 4294,1066C4383,951 4539,735 4547,714C4551,704 4571,700 4621,700C4659,700 4690,703 4690,706C4690,714 4574,880 4475,1015C4315,1231 4075,1513 3715,1905C3478,2164 3036,2625 2995,2656L2965,2678L2936,2634Z" style="fill:white;fill-rule:nonzero;"></path>
        <path d="M6088,2542L5771,2540L5749,2509C5729,2480 5728,2472 5735,2352C5741,2233 5744,2223 5768,2197L5795,2168L6200,2175C6564,2181 7252,2172 7757,2154L7939,2147L7969,2178L8000,2208L8000,2332C8000,2445 7998,2457 7977,2483L7954,2512L7760,2521C7653,2525 7363,2532 7115,2535C6868,2538 6607,2541 6535,2543C6464,2544 6262,2544 6088,2542ZM5978,2355L5980,2310L5930,2310C5903,2310 5877,2309 5873,2308C5868,2306 5864,2326 5862,2353L5859,2400L5975,2400L5978,2355ZM7678,2384L7860,2377L7860,2297L7623,2303C7492,2307 7096,2313 6743,2317L6100,2323L6100,2403L6798,2397C7181,2393 7577,2387 7678,2384Z" style="fill:white;fill-rule:nonzero;"></path>
    </g>
</svg></svg></g></g><defs><clipPath id="SvgjsClipPath1178"><rect width="1000" height="1000" x="0" y="0" rx="500" ry="500"></rect></clipPath></defs></svg></g></svg>