<?xml version="1.0" standalone="no"?>
<!DOCTYPE svg PUBLIC "-//W3C//DTD SVG 20010904//EN"
 "http://www.w3.org/TR/2001/REC-SVG-20010904/DTD/svg10.dtd">
<svg version="1.0" xmlns="http://www.w3.org/2000/svg"
 width="861.653614pt" height="885.862098pt" viewBox="0 0 861.653614 885.862098"
 preserveAspectRatio="xMidYMid meet">
<metadata>
Created by potrace 1.12, written by Peter Selinger 2001-2015
</metadata>
<g transform="translate(-76.346386,955.825875) scale(0.100000,-0.100000)"
fill="#000000" stroke="none">
<path d="M4420 9549 c-136 -13 -305 -42 -304 -54 0 -5 19 -23 41 -40 47 -34
52 -45 22 -45 -55 0 -299 -83 -402 -138 l-52 -27 150 -5 150 -5 -75 -14 c-182
-33 -521 -168 -714 -284 -53 -32 -56 -36 -38 -46 19 -10 158 -36 227 -43 29
-3 28 -5 -50 -68 -108 -87 -207 -183 -266 -256 -27 -34 -49 -65 -49 -68 0 -9
148 -6 200 4 25 4 46 7 48 5 1 -1 -14 -40 -34 -86 -64 -145 -89 -234 -119
-412 l-6 -38 40 26 41 25 0 -53 c0 -44 43 -456 66 -628 l6 -45 -41 -19 c-121
-54 -149 -167 -113 -460 12 -94 26 -228 32 -300 17 -207 51 -306 131 -386 57
-57 118 -82 203 -83 l69 -1 24 -130 c13 -72 38 -185 57 -252 l33 -121 -91 -33
c-336 -119 -571 -255 -743 -431 -86 -87 -122 -133 -196 -254 -56 -91 -120
-160 -173 -187 -16 -8 -60 -24 -98 -36 -38 -12 -86 -31 -106 -41 -123 -63
-186 -246 -125 -365 13 -27 23 -50 22 -51 -1 -1 -75 -38 -165 -82 -336 -168
-495 -278 -588 -408 -136 -190 -268 -602 -393 -1229 -91 -453 -226 -1272 -274
-1658 l-4 -27 92 0 91 0 18 148 c46 386 265 1574 357 1937 64 251 203 654 215
620 2 -5 42 -174 89 -375 209 -891 355 -1735 381 -2207 l7 -123 84 0 c74 0 83
2 83 18 0 41 -31 346 -50 492 -23 172 -98 620 -130 774 -11 54 -20 106 -20
115 0 14 26 19 183 35 100 9 308 31 461 47 153 16 280 28 281 27 6 -9 228
-253 335 -368 432 -465 722 -797 910 -1042 l75 -98 98 0 98 0 -31 45 c-98 143
-404 511 -658 794 -212 235 -710 770 -841 903 l-135 138 25 27 c36 39 337 380
378 427 l34 40 -34 29 c-19 16 -87 65 -152 108 -64 44 -117 82 -117 85 0 3 46
72 103 153 271 385 277 394 397 657 50 110 112 237 137 284 50 93 155 251 180
272 15 12 16 10 10 -14 -37 -149 -77 -515 -77 -709 0 -197 47 -400 168 -730
144 -389 242 -655 427 -1149 210 -564 267 -725 380 -1065 37 -110 76 -220 88
-245 l22 -45 231 -3 231 -2 7 112 c27 444 68 937 107 1283 16 151 24 189 47
235 15 30 32 56 37 57 6 2 0 -101 -17 -269 -51 -512 -108 -1243 -108 -1385 l0
-33 63 0 63 0 12 217 c17 284 45 630 83 1028 17 176 36 374 43 439 l11 119 85
29 c194 65 350 94 735 133 138 14 277 30 310 36 139 23 199 60 237 145 22 51
20 60 -62 404 -74 309 -144 629 -139 633 22 17 319 131 325 124 11 -13 58
-168 73 -245 17 -82 61 -399 61 -438 0 -7 -13 -15 -29 -19 -53 -11 -54 -18
-46 -220 l7 -185 30 -25 c27 -23 38 -25 126 -25 81 0 103 4 131 21 l34 21 -6
188 c-4 104 -10 196 -13 205 -4 9 -19 19 -35 22 -26 5 -29 10 -29 42 0 155
-73 558 -125 692 -4 12 3 20 26 30 18 7 52 28 76 46 l44 34 140 -61 c208 -90
448 -207 615 -300 149 -82 360 -217 382 -242 8 -10 4 -40 -19 -123 -90 -332
-217 -872 -314 -1330 -153 -725 -202 -980 -235 -1225 -11 -84 -20 -156 -20
-161 0 -5 38 -9 85 -9 l85 0 0 38 c0 81 51 415 111 722 103 528 433 1940 450
1923 18 -18 111 -268 154 -418 79 -273 143 -572 214 -1000 39 -231 201 -1249
201 -1260 0 -3 41 -5 90 -5 53 0 90 4 90 10 0 23 -154 1035 -191 1255 -100
595 -237 1142 -355 1416 -48 113 -111 206 -147 219 -34 11 -74 52 -87 86 -30
78 -625 409 -1077 599 l-93 39 0 41 c0 55 -24 144 -56 207 -14 28 -39 96 -54
152 -55 194 -119 305 -251 432 -41 38 -106 91 -145 117 -110 72 -303 161 -469
216 -82 28 -149 54 -148 58 1 4 17 80 37 168 19 88 40 190 46 227 l12 66 66
-1 c153 -1 268 104 316 289 19 75 52 343 66 545 10 134 9 165 -5 227 -20 87
-57 141 -115 167 l-42 19 7 60 c3 34 18 120 31 191 45 236 64 378 71 523 3 78
8 142 11 142 2 0 16 -8 30 -18 51 -35 51 -35 45 5 -30 209 -154 471 -272 577
-23 21 -24 25 -12 44 6 10 22 8 75 -14 37 -14 69 -24 72 -21 11 10 -16 44 -88
113 -121 115 -246 168 -425 180 l-89 7 -34 61 c-45 82 -159 195 -235 233 -175
89 -578 189 -855 213 -135 12 -464 11 -600 -1z m957 -1005 c211 -31 627 -153
683 -201 34 -29 101 -132 136 -210 53 -121 66 -199 70 -447 3 -192 8 -252 29
-360 108 -568 -16 -1318 -276 -1663 -51 -68 -154 -178 -191 -204 -27 -19 -28
-20 -34 -2 -27 80 -72 158 -113 196 -82 77 -251 139 -436 159 -96 11 -102 10
-145 -12 -71 -36 -151 -38 -234 -5 -63 25 -76 27 -150 21 -115 -10 -227 -40
-332 -91 -110 -53 -156 -101 -205 -210 -19 -41 -37 -75 -41 -75 -4 0 -32 25
-62 55 -234 233 -377 611 -426 1128 -18 181 -8 553 19 721 16 98 21 175 21
318 0 210 12 291 62 421 64 165 198 318 348 396 44 23 80 39 80 36 0 -3 -11
-28 -25 -55 -47 -92 -104 -340 -78 -340 4 0 19 16 32 36 42 61 185 187 267
235 66 39 198 99 218 99 3 0 -3 -15 -14 -32 -23 -41 -66 -168 -75 -226 l-7
-44 83 87 c138 143 300 255 404 278 50 11 294 6 392 -9z m-1988 -1470 c53 -38
85 -162 106 -416 9 -102 26 -253 39 -337 25 -169 25 -169 -39 -157 -50 10 -88
47 -119 115 -23 51 -28 84 -41 248 -9 103 -22 231 -31 283 -20 127 -20 224 1
256 18 28 50 31 84 8z m3285 1 c29 -30 30 -103 3 -380 -15 -148 -34 -301 -42
-340 -28 -130 -100 -206 -180 -191 -42 8 -42 5 -15 168 11 68 26 198 35 290 8
91 20 190 26 220 13 63 83 218 106 236 23 16 48 15 67 -3z m-1419 -1491 c158
-30 251 -70 307 -133 63 -69 78 -192 34 -279 -31 -61 -142 -191 -209 -243
-110 -88 -176 -98 -290 -47 -95 43 -155 43 -254 -1 -87 -38 -131 -39 -202 -6
-58 27 -206 164 -267 247 -68 91 -68 222 0 311 45 59 149 109 301 142 114 26
124 27 215 15 81 -11 106 -10 160 2 68 16 77 15 205 -8z m1106 -263 c453 -155
635 -306 647 -537 7 -126 -37 -246 -138 -384 -91 -122 -305 -315 -519 -465
-95 -67 -118 -103 -99 -158 11 -29 53 -57 88 -57 24 0 87 31 148 72 24 17 45
28 47 26 1 -1 24 -100 50 -218 25 -118 71 -310 101 -426 30 -116 54 -230 54
-253 0 -38 -3 -43 -33 -56 -33 -14 -157 -30 -490 -65 -281 -29 -505 -71 -622
-115 -35 -14 76 93 170 164 183 137 542 352 655 391 65 22 75 29 78 52 5 39
-38 68 -102 68 -62 0 -113 -23 -321 -145 -249 -146 -502 -327 -579 -413 -23
-26 -40 -29 -26 -4 5 9 30 60 54 114 86 189 205 379 428 685 235 321 303 507
317 868 l6 170 27 -86 c32 -98 64 -232 74 -304 7 -57 27 -85 60 -85 35 0 178
113 250 198 111 130 158 256 123 325 -14 26 -60 77 -70 77 -4 0 -17 -29 -29
-65 -25 -74 -81 -163 -151 -238 -34 -38 -49 -48 -53 -37 -2 8 -17 65 -31 125
-47 192 -109 340 -192 459 -19 26 -37 63 -40 82 -6 39 16 264 26 264 4 0 45
-13 92 -29z m-2603 -73 c6 -35 14 -92 17 -128 l6 -65 -35 -24 c-56 -37 -188
-180 -246 -266 -66 -98 -142 -256 -218 -455 -33 -85 -69 -177 -81 -204 l-22
-50 -65 65 c-36 35 -95 99 -131 142 -37 42 -69 77 -73 77 -4 0 -13 -26 -19
-57 -11 -50 -10 -65 4 -108 28 -81 62 -131 142 -204 l75 -70 -22 -35 c-12 -20
-24 -36 -27 -36 -3 0 -37 30 -76 66 -180 166 -352 261 -567 310 -78 19 -90 27
-90 66 0 48 43 82 146 113 168 51 242 114 378 318 147 221 282 340 526 462
107 54 326 144 351 145 13 0 19 -15 27 -62z m2328 -492 c8 -127 19 -259 23
-294 7 -56 4 -75 -19 -142 -53 -153 -204 -325 -401 -456 -169 -112 -324 -171
-534 -201 -411 -58 -867 108 -1166 424 -35 38 -77 90 -92 116 l-28 47 15 83
c27 146 45 321 52 513 l7 187 21 -29 c12 -16 57 -71 101 -124 234 -279 397
-409 590 -470 59 -19 100 -23 256 -28 212 -5 326 7 431 45 202 72 411 260 636
568 l87 121 2 -66 c2 -36 10 -168 19 -294z m1141 -369 c9 -92 -49 -147 -189
-181 -38 -9 -73 -15 -75 -12 -3 3 12 27 34 53 61 74 101 136 141 220 l36 77
24 -52 c13 -29 26 -76 29 -105z m-4735 -409 c54 -17 67 -25 62 -38 -4 -8 -31
-85 -60 -171 -61 -177 -109 -397 -126 -576 -12 -117 -13 -123 -35 -123 -40 0
-50 -35 -63 -207 -15 -221 -11 -227 151 -237 156 -10 149 -21 152 229 2 199 2
200 -20 210 -28 12 -28 8 -3 175 31 214 103 478 159 588 l16 32 80 -64 c44
-35 95 -79 113 -98 l32 -34 -99 -139 c-55 -77 -110 -159 -122 -183 -19 -40
-20 -48 -8 -84 14 -43 49 -76 167 -153 39 -26 72 -51 72 -55 0 -4 -37 -47 -82
-96 -121 -133 -241 -274 -271 -319 -45 -66 -39 -84 65 -191 50 -52 89 -96 87
-98 -4 -3 -716 -75 -784 -79 l-29 -2 -33 155 c-103 489 -239 1067 -268 1141
-10 27 133 121 380 250 138 72 382 189 394 189 3 0 35 -10 73 -22z m4782 -865
c11 -131 10 -133 -23 -133 l-30 0 -3 101 c-2 55 -1 103 1 105 2 2 14 4 26 4
20 0 23 -6 29 -77z m-4819 -190 c-2 -16 -7 -58 -10 -95 -6 -58 -9 -68 -26 -68
-21 0 -23 13 -12 123 5 62 8 67 29 67 20 0 23 -4 19 -27z"/>
<path d="M4015 7291 c-108 -29 -206 -130 -229 -237 -5 -23 -2 -36 10 -48 9 -9
19 -16 23 -14 3 2 46 23 95 48 l89 45 146 3 c111 3 180 -2 286 -18 248 -37
249 -37 284 -2 51 51 39 98 -37 136 -116 58 -265 87 -477 92 -88 2 -173 0
-190 -5z"/>
<path d="M5600 7289 c-194 -22 -330 -65 -371 -117 -28 -36 -25 -86 7 -111 33
-26 58 -26 208 1 97 17 160 22 317 22 l197 1 96 -49 c79 -40 99 -46 111 -36
22 18 18 48 -14 115 -36 78 -114 149 -184 170 -56 17 -238 19 -367 4z"/>
<path d="M4207 7014 c-74 -18 -109 -36 -164 -87 -52 -48 -69 -82 -52 -103 18
-22 30 -18 120 42 l84 55 6 -50 c8 -60 36 -103 83 -125 42 -20 59 -20 100 -1
42 20 70 68 76 133 l5 53 64 -55 c132 -114 166 -37 37 82 -28 26 -64 46 -97
56 -64 19 -183 19 -262 0z"/>
<path d="M5490 7015 c-56 -18 -114 -66 -151 -124 -22 -33 -26 -48 -18 -58 21
-24 48 -14 110 42 34 30 65 55 68 55 4 0 5 -15 3 -34 -9 -75 61 -166 128 -166
65 0 130 74 130 148 l0 44 48 -28 c26 -15 65 -40 86 -56 43 -31 74 -36 82 -13
18 47 -70 136 -173 175 -76 29 -246 37 -313 15z"/>
<path d="M5113 6854 c-16 -25 -18 -50 -18 -219 0 -131 4 -201 13 -227 28 -79
91 -124 78 -55 -3 18 -13 140 -20 271 -8 131 -19 243 -24 248 -7 7 -17 0 -29
-18z"/>
<path d="M4634 6155 c-37 -39 -49 -84 -41 -151 8 -76 72 -124 163 -124 17 0
43 -9 57 -20 77 -61 155 -65 250 -15 49 26 78 35 114 35 121 0 190 96 148 206
-17 45 -55 81 -74 70 -7 -5 -7 -16 0 -34 6 -15 11 -45 11 -66 1 -58 -26 -76
-113 -76 -59 0 -75 -4 -116 -30 -59 -38 -79 -38 -156 2 -35 18 -87 35 -120 39
-79 10 -91 21 -83 84 3 27 8 65 12 83 8 43 -9 42 -52 -3z"/>
<path d="M4785 5480 c-243 -6 -287 -13 -300 -48 -10 -27 14 -39 88 -46 295
-25 385 -27 573 -11 290 25 298 26 302 52 2 15 -6 27 -24 40 -24 16 -52 18
-214 19 -102 1 -293 -2 -425 -6z"/>
<path d="M5159 5236 c-2 -3 -99 -5 -214 -7 -231 -2 -255 -8 -255 -57 0 -65 83
-142 174 -163 30 -6 93 -10 142 -7 148 7 224 61 226 160 0 32 -5 46 -22 60
-21 17 -42 23 -51 14z"/>
<path d="M6425 3127 c-45 -45 -62 -109 -41 -153 21 -44 57 -66 108 -66 51 1
86 25 112 76 24 50 15 99 -29 143 -27 27 -41 33 -75 33 -34 0 -48 -6 -75 -33z"/>
<path d="M3190 3512 c-75 -37 -102 -127 -57 -193 34 -50 65 -57 123 -28 67 33
97 80 91 139 -4 33 -13 51 -36 72 -36 32 -71 35 -121 10z"/>
<path d="M2936 2634 l-28 -45 164 -167 c438 -447 997 -1067 1222 -1356 89
-115 245 -331 253 -352 4 -10 24 -14 74 -14 38 0 69 3 69 6 0 8 -116 174 -215
309 -160 216 -400 498 -760 890 -237 259 -679 720 -720 751 l-30 22 -29 -44z"/>
<path d="M6088 2542 l-317 -2 -22 -31 c-20 -29 -21 -37 -14 -157 6 -119 9
-129 33 -155 l27 -29 405 7 c364 6 1052 -3 1557 -21 l182 -7 30 31 31 30 0
124 c0 113 -2 125 -23 151 l-23 29 -194 9 c-107 4 -397 11 -645 14 -247 3
-508 6 -580 8 -71 1 -273 1 -447 -1z m-110 -187 l2 -45 -50 0 c-27 0 -53 -1
-57 -2 -5 -2 -9 18 -11 45 l-3 47 58 0 58 0 3 -45z m1700 29 l182 -7 0 -40 0
-40 -237 6 c-131 4 -527 10 -880 14 l-643 6 0 40 0 40 698 -6 c383 -4 779 -10
880 -13z"/>
</g>
</svg>
